<svg xmlns="http://www.w3.org/2000/svg" version="1.1" width="250" height="250" viewBox="0 0 250 250"><rect x="0" y="0" width="250" height="250" fill="#ffffff"></rect><g transform="scale(8.065)"><g transform="translate(1,1)"><g><g transform="translate(3.5,3.5)"><path fill-rule="evenodd" d="M-3.5 -3.5L3.5 -3.5L3.5 3.5L-3.5 3.5ZM-2.5 -2.5L-2.5 2.5L2.5 2.5L2.5 -2.5Z" fill="#000000"></path><path fill-rule="evenodd" d="M-1.5 -1.5L1.5 -1.5L1.5 1.5L-1.5 1.5Z" fill="#000000"></path></g></g><g><g transform="translate(25.5,3.5)"><g transform="rotate(90)"><path fill-rule="evenodd" d="M-3.5 -3.5L3.5 -3.5L3.5 3.5L-3.5 3.5ZM-2.5 -2.5L-2.5 2.5L2.5 2.5L2.5 -2.5Z" fill="#000000"></path><path fill-rule="evenodd" d="M-1.5 -1.5L1.5 -1.5L1.5 1.5L-1.5 1.5Z" fill="#000000"></path></g></g></g><g><g transform="translate(3.5,25.5)"><g transform="rotate(-90)"><path fill-rule="evenodd" d="M-3.5 -3.5L3.5 -3.5L3.5 3.5L-3.5 3.5ZM-2.5 -2.5L-2.5 2.5L2.5 2.5L2.5 -2.5Z" fill="#000000"></path><path fill-rule="evenodd" d="M-1.5 -1.5L1.5 -1.5L1.5 1.5L-1.5 1.5Z" fill="#000000"></path></g></g></g><path fill-rule="evenodd" d="M11 0L11 1L12 1L12 2L14 2L14 5L15 5L15 6L14 6L14 7L15 7L15 6L16 6L16 8L15 8L15 10L14 10L14 9L13 9L13 10L12 10L12 11L13 11L13 12L14 12L14 13L15 13L15 14L16 14L16 15L19 15L19 16L22 16L22 17L21 17L21 18L20 18L20 19L19 19L19 18L17 18L17 19L16 19L16 18L15 18L15 17L16 17L16 16L15 16L15 15L14 15L14 16L15 16L15 17L13 17L13 16L11 16L11 18L9 18L9 17L10 17L10 16L8 16L8 19L7 19L7 18L6 18L6 17L7 17L7 16L6 16L6 15L10 15L10 14L11 14L11 15L13 15L13 13L12 13L12 12L11 12L11 10L10 10L10 9L12 9L12 7L13 7L13 5L11 5L11 6L10 6L10 5L9 5L9 3L10 3L10 2L8 2L8 8L9 8L9 9L7 9L7 8L2 8L2 10L3 10L3 11L4 11L4 12L3 12L3 13L2 13L2 12L0 12L0 21L1 21L1 18L2 18L2 21L4 21L4 20L3 20L3 18L4 18L4 16L3 16L3 18L2 18L2 17L1 17L1 16L2 16L2 15L1 15L1 13L2 13L2 14L3 14L3 13L5 13L5 14L6 14L6 15L5 15L5 18L6 18L6 19L7 19L7 20L5 20L5 21L8 21L8 22L9 22L9 21L10 21L10 23L8 23L8 27L9 27L9 28L8 28L8 29L9 29L9 28L10 28L10 29L11 29L11 28L12 28L12 29L13 29L13 28L15 28L15 29L16 29L16 28L15 28L15 27L19 27L19 25L20 25L20 26L21 26L21 25L23 25L23 27L24 27L24 25L25 25L25 23L26 23L26 25L29 25L29 23L27 23L27 22L28 22L28 20L29 20L29 19L27 19L27 18L28 18L28 17L27 17L27 18L26 18L26 17L24 17L24 16L25 16L25 15L27 15L27 16L29 16L29 14L28 14L28 13L27 13L27 14L26 14L26 13L24 13L24 12L26 12L26 11L27 11L27 10L28 10L28 9L27 9L27 8L22 8L22 9L24 9L24 10L25 10L25 11L19 11L19 10L21 10L21 6L20 6L20 7L19 7L19 3L20 3L20 5L21 5L21 3L20 3L20 1L21 1L21 0L19 0L19 3L18 3L18 5L17 5L17 2L18 2L18 1L17 1L17 0L16 0L16 1L15 1L15 2L14 2L14 1L13 1L13 0ZM16 1L16 2L15 2L15 3L16 3L16 2L17 2L17 1ZM16 5L16 6L17 6L17 7L18 7L18 6L17 6L17 5ZM9 6L9 8L10 8L10 6ZM11 6L11 7L12 7L12 6ZM0 8L0 11L1 11L1 8ZM16 8L16 9L17 9L17 10L16 10L16 11L14 11L14 12L16 12L16 11L17 11L17 12L18 12L18 13L16 13L16 14L18 14L18 13L19 13L19 15L25 15L25 14L24 14L24 13L23 13L23 14L21 14L21 13L22 13L22 12L21 12L21 13L20 13L20 12L19 12L19 11L17 11L17 10L19 10L19 9L20 9L20 8L18 8L18 9L17 9L17 8ZM3 9L3 10L4 10L4 9ZM6 9L6 10L5 10L5 12L7 12L7 13L6 13L6 14L10 14L10 13L9 13L9 12L7 12L7 11L6 11L6 10L7 10L7 9ZM26 9L26 10L27 10L27 9ZM28 11L28 12L29 12L29 11ZM17 16L17 17L18 17L18 16ZM12 17L12 18L11 18L11 22L12 22L12 23L10 23L10 25L9 25L9 27L10 27L10 28L11 28L11 27L10 27L10 26L11 26L11 25L15 25L15 26L12 26L12 27L15 27L15 26L18 26L18 24L19 24L19 23L17 23L17 22L20 22L20 20L19 20L19 19L17 19L17 20L16 20L16 19L14 19L14 20L13 20L13 21L12 21L12 18L13 18L13 17ZM23 17L23 18L21 18L21 19L23 19L23 18L24 18L24 19L25 19L25 20L27 20L27 19L25 19L25 18L24 18L24 17ZM8 20L8 21L9 21L9 20ZM14 20L14 21L16 21L16 20ZM17 20L17 21L19 21L19 20ZM21 21L21 24L24 24L24 21ZM25 21L25 22L27 22L27 21ZM15 22L15 23L14 23L14 24L15 24L15 25L17 25L17 23L16 23L16 22ZM22 22L22 23L23 23L23 22ZM12 23L12 24L13 24L13 23ZM15 23L15 24L16 24L16 23ZM26 26L26 27L25 27L25 28L24 28L24 29L27 29L27 27L28 27L28 28L29 28L29 27L28 27L28 26ZM17 28L17 29L18 29L18 28ZM19 28L19 29L20 29L20 28ZM21 28L21 29L23 29L23 28Z" fill="#000000"></path></g></g></svg>